<svg xmlns="http://www.w3.org/2000/svg" xmlns:xlink="http://www.w3.org/1999/xlink" viewBox="0 0 2318.32 752.66"><defs><linearGradient id="名称未設定グラデーション_35" x1="382.67" y1="1153.86" x2="1866.05" y2="-329.52" gradientUnits="userSpaceOnUse"><stop offset="0" stop-color="aqua"/><stop offset="0.53" stop-color="#4dff5a"/><stop offset="1" stop-color="#d5ff46"/></linearGradient></defs><title>logo-type</title><g id="レイヤー_2" data-name="レイヤー 2"><g id="Main_Contents_1920" data-name="Main Contents 1920"><path d="M0,88.36A79.43,79.43,0,0,1,80,8.31H97.72C132,8.31,155.94,26,170.5,49.89l193.36,315,194.4-316C574.9,21.83,597.77,8.31,630,8.31h17.67c44.71,0,80,35.35,80,80.05v578c0,44.71-35.33,80-80,80-43.66,0-79-36.38-79-80V303.56L428.32,519.79c-16.64,25-37.43,40.55-66.53,40.55s-49.91-15.59-66.53-40.55L157,306.67V668.45c0,43.66-35.33,78-79,78s-78-34.3-78-78Zm828.59,290v-2.07C828.59,169.45,991.79,0,1216.35,0S1602,167.37,1602,374.25v2.08c0,206.88-163.22,376.33-387.77,376.33S828.59,585.29,828.59,378.41Zm606.07,0v-2.07c0-124.75-91.47-228.71-220.39-228.71S996,249.49,996,374.25v2.08c0,124.75,91.49,228.7,220.39,228.7S1434.66,503.17,1434.66,378.41ZM1702.87,86.28a79.43,79.43,0,0,1,80-80.05c44.71,0,80.06,35.35,80.06,80.05V300.44h295.24V86.28a79.43,79.43,0,0,1,80-80.05c44.71,0,80.06,35.35,80.06,80.05V666.37c0,44.71-35.35,80-80.06,80s-80-35.33-80-80V448.06H1863V666.37c0,44.71-35.35,80-80.06,80s-80-35.33-80-80Z" fill="url(#名称未設定グラデーション_35)"/></g></g></svg>