<svg xmlns="http://www.w3.org/2000/svg" xmlns:xlink="http://www.w3.org/1999/xlink" viewBox="0 0 1020.17 1051.32"><defs><linearGradient id="名称未設定グラデーション_35" x1="-5.23" y1="1041.34" x2="978.16" y2="57.96" gradientUnits="userSpaceOnUse"><stop offset="0" stop-color="aqua"/><stop offset="0.53" stop-color="#4dff5a"/><stop offset="1" stop-color="#d5ff46"/></linearGradient></defs><title>logo</title><g id="レイヤー_2" data-name="レイヤー 2"><g id="Main_Contents_1920" data-name="Main Contents 1920"><path d="M0,91.93A91.45,91.45,0,0,1,91.93,0H111.2c40,0,66.72,20.77,84.52,48.95L510.07,541.22,825.92,47.45C845.19,16.3,871.88,0,909,0h19.27a91.45,91.45,0,0,1,91.93,91.93V960.86c0,50.42-40,90.46-91.93,90.46-48.95,0-90.46-41.53-90.46-90.46V338.07L584.23,719.16c-19.29,29.65-43,47.45-77.1,47.45-32.62,0-56.36-17.8-75.63-47.45L179.42,341.06V962.35c0,50.42-40,89-90.46,89s-89-38.54-89-89Z" fill="url(#名称未設定グラデーション_35)"/></g></g></svg>